<?xml version="1.0" standalone="no"?>
<!DOCTYPE svg PUBLIC "-//W3C//DTD SVG 20010904//EN"
 "http://www.w3.org/TR/2001/REC-SVG-20010904/DTD/svg10.dtd">
<svg version="1.0" xmlns="http://www.w3.org/2000/svg"
 width="700.000000pt" height="700.000000pt" viewBox="0 0 700.000000 700.000000"
 preserveAspectRatio="xMidYMid meet">
<metadata>
Created by potrace 1.14, written by Peter Selinger 2001-2017
</metadata>
<g transform="translate(0.000000,700.000000) scale(0.100000,-0.100000)"
fill="#000000" stroke="none">
<path d="M3235 6990 c-1336 -110 -2471 -935 -2975 -2161 -120 -291 -199 -597
-242 -939 -17 -139 -17 -651 0 -780 83 -607 269 -1103 593 -1580 268 -395 664
-770 1068 -1011 448 -268 930 -431 1451 -491 171 -19 591 -16 765 6 672 85
1264 334 1795 755 129 102 417 391 524 526 427 536 688 1182 756 1865 14 147
14 503 0 651 -67 683 -328 1325 -754 1859 -124 155 -384 417 -531 534 -520
414 -1143 674 -1800 751 -161 19 -503 27 -650 15z m90 -1537 c22 -7 31 -16 33
-35 3 -25 2 -25 -84 -32 -323 -24 -643 -157 -929 -384 -99 -79 -279 -262 -359
-364 -217 -280 -328 -567 -361 -931 -7 -67 -7 -68 -33 -65 -27 3 -27 5 -41
123 -24 198 3 427 74 640 134 404 398 711 775 900 118 59 295 118 420 139 52
8 106 18 120 20 41 7 353 -2 385 -11z m-527 -1394 c2 -51 7 -98 12 -103 5 -5
28 4 57 22 136 87 272 127 406 120 107 -6 161 -30 247 -114 76 -73 81 -74 155
-24 69 47 181 99 262 121 108 30 233 24 315 -15 71 -34 139 -107 170 -184 22
-56 23 -65 26 -507 2 -286 7 -454 13 -462 6 -6 27 -13 47 -15 40 -3 54 -27 32
-53 -19 -23 -266 -21 -292 2 -17 15 -18 41 -18 423 0 488 -6 535 -79 613 -53
58 -95 72 -211 72 -98 0 -109 -2 -166 -32 -80 -41 -131 -98 -139 -155 -4 -24
-5 -205 -3 -403 2 -267 6 -366 16 -382 12 -22 47 -36 126 -51 49 -9 64 -31 48
-67 l-13 -27 -85 7 c-108 9 -311 9 -420 0 -83 -7 -83 -7 -89 18 -11 42 8 61
76 77 47 11 67 22 83 43 20 28 21 39 21 385 0 397 -4 431 -66 505 -49 59 -99
80 -204 85 -105 5 -172 -15 -248 -73 -79 -61 -77 -45 -77 -553 l0 -451 -26
-20 c-24 -18 -41 -21 -141 -21 -126 0 -153 8 -153 45 0 21 5 25 33 25 65 0 62
-25 65 463 3 510 4 505 -70 552 -79 50 -70 62 112 154 85 43 160 77 165 76 6
-1 11 -43 13 -96z m2654 -719 c5 -19 11 -102 15 -185 20 -514 -210 -1010 -607
-1308 -181 -136 -418 -236 -673 -284 -102 -19 -417 -23 -497 -7 -38 8 -45 13
-48 36 -3 26 -2 26 65 32 427 39 793 217 1126 551 333 332 508 675 548 1070
14 137 14 137 41 133 16 -2 25 -13 30 -38z"/>
</g>
</svg>
