<svg width="120" height="24" viewBox="0 0 120 24" fill="none" xmlns="http://www.w3.org/2000/svg">
<g clip-path="url(#clip0_214_564)">
<path d="M55.626 12.1661C55.626 14.875 53.7718 16.8235 51.0618 16.8235C48.5895 16.8235 46.6403 15.0651 46.6403 12.4037C46.6403 9.69477 48.6846 7.74625 51.252 7.74625C53.6767 7.69873 55.626 9.5522 55.626 12.1661ZM50.9667 8.36408C49.5404 8.36408 48.4945 9.74229 48.4945 12.071C48.4945 14.0195 49.3978 16.1581 51.2995 16.1581C53.2013 16.1581 53.7718 14.1621 53.7718 12.4987C53.7718 10.6928 53.0111 8.36408 50.9667 8.36408Z" fill="#182B45"/>
<path d="M58.9065 10.3126C58.9065 9.45714 58.9065 9.36209 58.3359 8.98189L58.1458 8.83932C58.0507 8.74427 58.0507 8.50664 58.1458 8.45912C58.6212 8.26902 59.8573 7.74625 60.2852 7.41357C60.3803 7.41357 60.4754 7.4611 60.523 7.55615C60.4754 8.0314 60.4754 8.36407 60.4754 8.55417C60.4754 8.69674 60.5705 8.79179 60.7131 8.79179C61.6164 8.22149 62.6149 7.69872 63.7084 7.69872C65.515 7.69872 66.2282 8.93437 66.2282 10.3601V14.067C66.2282 15.6354 66.2757 15.8255 67.0364 15.9205L67.5118 15.968C67.6545 16.0631 67.6069 16.4433 67.4643 16.4908C66.7987 16.4433 66.1806 16.4433 65.4199 16.4433C64.6592 16.4433 63.9936 16.4433 63.4231 16.4908C63.2805 16.4433 63.2329 16.0631 63.3756 15.968L63.8035 15.9205C64.6117 15.7779 64.6117 15.5878 64.6117 14.067V10.8354C64.6117 9.59971 64.0412 8.69674 62.5673 8.69674C61.7591 8.69674 61.0459 9.02942 60.7131 9.45714C60.4279 9.83734 60.3803 10.1225 60.3803 10.7403V14.0195C60.3803 15.5878 60.4279 15.7779 61.1886 15.873L61.5689 15.9205C61.7115 16.0156 61.664 16.3958 61.5214 16.4433C60.9508 16.3958 60.3328 16.3958 59.5721 16.3958C58.8114 16.3958 58.1458 16.3958 57.5277 16.4433C57.3851 16.3958 57.3375 16.0156 57.4802 15.9205L57.9556 15.873C58.7638 15.7779 58.7638 15.5403 58.7638 14.0195V10.3126H58.9065Z" fill="#182B45"/>
<path d="M72.0285 9.45738V13.497C72.0285 14.7326 72.1711 15.8732 73.5974 15.8732C73.8352 15.8732 74.0253 15.8257 74.168 15.7782C74.3581 15.7306 74.6434 15.493 74.6909 15.493C74.8811 15.493 74.9287 15.7306 74.9287 15.8732C74.5483 16.3485 73.7876 16.8712 72.6466 16.8712C70.7924 16.8712 70.412 15.8257 70.412 14.5425V9.55243C70.412 8.98213 70.412 8.93461 69.9366 8.93461H69.4136C69.271 8.83956 69.271 8.60193 69.3661 8.45936C69.9841 8.26926 70.5071 7.98411 70.7448 7.79401C71.0301 7.55639 71.458 6.93857 71.6482 6.51085C71.7432 6.46332 72.0285 6.46332 72.1236 6.60589V7.55639" fill="#182B45"/>
<path d="M77.7338 10.3127C77.7338 9.45726 77.7338 9.36221 77.1633 8.98201L76.9731 8.83944C76.878 8.74439 76.878 8.50676 76.9731 8.45924C77.4485 8.26914 78.6847 7.74637 79.2077 7.4137C79.3027 7.4137 79.3978 7.46122 79.4454 7.55627C79.3978 8.31667 79.3503 9.36221 79.3503 10.2177V14.1147C79.3503 15.683 79.3978 15.8731 80.1585 15.9682L80.634 16.0157C80.7766 16.1107 80.729 16.4909 80.5864 16.5384C79.9208 16.4909 79.3027 16.4909 78.542 16.4909C77.7813 16.4909 77.1157 16.4909 76.4977 16.5384C76.355 16.4909 76.3075 16.1107 76.4501 16.0157L76.9256 15.9682C77.7338 15.8731 77.7338 15.6355 77.7338 14.1147V10.3127ZM79.4929 4.18201C79.4929 4.94241 78.9699 5.32261 78.3519 5.32261C77.6863 5.32261 77.2584 4.84736 77.2584 4.22954C77.2584 3.51667 77.7813 3.08894 78.3994 3.08894C79.065 3.04142 79.4929 3.56419 79.4929 4.18201Z" fill="#182B45"/>
<path d="M83.344 10.17C83.0112 9.36211 82.821 8.69676 82.0603 8.55418L81.6324 8.50666C81.4898 8.31656 81.5373 8.03141 81.6799 7.98389C82.2029 8.03141 82.9636 8.03141 83.7243 8.03141C84.2948 8.03141 84.7227 8.03141 85.4834 7.98389C85.626 8.07894 85.6736 8.41161 85.4834 8.50666L85.2457 8.55418C84.5801 8.64923 84.5325 8.79181 84.7703 9.40963C85.2457 10.8829 85.9113 12.4037 86.3867 13.5443C86.5769 13.972 86.672 14.1621 86.7195 14.2572C86.8146 14.2096 86.9573 13.877 87.1474 13.4492L88.3836 10.2651C88.6688 9.50468 88.7639 9.07696 88.7639 8.93438C88.7639 8.74428 88.6213 8.64923 88.3836 8.60171L87.9081 8.55418C87.7655 8.41161 87.8131 8.07894 87.9557 8.03141C88.6213 8.07894 89.1443 8.07894 89.5722 8.07894C90.0951 8.07894 90.4755 8.07894 91.0936 8.03141C91.2362 8.12646 91.2837 8.45913 91.1411 8.55418L90.8083 8.60171C90.0476 8.69676 89.8574 9.26706 89.2394 10.4552C88.9541 11.0255 87.6229 14.1621 87.2425 15.0651C87.0048 15.5878 86.8146 16.1106 86.5294 16.8235C86.4818 16.871 86.3867 16.9185 86.2917 16.9185C86.1966 16.9185 86.0539 16.9185 86.0064 16.8235C85.8162 16.2057 85.531 15.3978 85.1982 14.5898L83.344 10.17Z" fill="#182B45"/>
<path d="M100.935 12.1661C100.935 14.875 99.0809 16.8235 96.3709 16.8235C93.8986 16.8235 91.9493 15.0651 91.9493 12.4037C91.9493 9.69477 93.9937 7.74625 96.5611 7.74625C98.9858 7.69873 100.935 9.5522 100.935 12.1661ZM96.2758 8.36408C94.8495 8.36408 93.8035 9.74229 93.8035 12.071C93.8035 14.0195 94.7069 16.1581 96.6086 16.1581C98.5104 16.1581 99.0809 14.1621 99.0809 12.4987C99.0809 10.6928 98.3202 8.36408 96.2758 8.36408Z" fill="#182B45"/>
<path d="M104.215 10.3126C104.215 9.45714 104.215 9.36209 103.645 8.98189L103.455 8.83932C103.36 8.74427 103.36 8.50664 103.455 8.45912C103.93 8.26902 105.071 7.74625 105.642 7.41357C105.737 7.41357 105.832 7.4611 105.832 7.55615V8.79179C105.832 8.88684 105.832 8.98189 105.88 8.98189C106.64 8.36407 107.448 7.69872 108.257 7.69872C108.78 7.69872 109.208 8.0314 109.208 8.55417C109.208 9.26704 108.637 9.55219 108.257 9.55219C108.019 9.55219 107.924 9.50466 107.781 9.40961C107.448 9.17199 107.116 9.07694 106.83 9.07694C106.498 9.07694 106.212 9.26704 106.07 9.50466C105.832 9.78981 105.784 10.4552 105.784 11.168V14.1146C105.784 15.6829 105.832 15.9205 106.64 15.968L107.401 16.0156C107.544 16.1106 107.496 16.4908 107.353 16.5383C106.355 16.4908 105.737 16.4908 104.976 16.4908C104.215 16.4908 103.55 16.4908 102.979 16.5383C102.837 16.4908 102.789 16.1106 102.932 16.0156L103.36 15.968C104.168 15.8255 104.168 15.6354 104.168 14.1146V10.3126H104.215Z" fill="#182B45"/>
<path d="M110.586 20.9582C110.586 20.3879 110.967 20.1028 111.442 20.1028H111.87C112.203 20.1028 112.441 19.9602 112.583 19.7226C113.201 18.7721 113.629 17.8691 113.819 17.3463C113.867 17.1562 114.057 16.7285 114.057 16.3959C114.057 15.9681 113.962 15.683 113.677 14.9226L112.013 10.3127C111.632 9.31466 111.49 8.79189 110.729 8.64932L110.206 8.55427C110.063 8.45922 110.111 8.07902 110.254 8.03149C110.967 8.07902 111.585 8.07902 112.298 8.07902C112.868 8.07902 113.487 8.07902 114.152 8.03149C114.342 8.07902 114.342 8.45922 114.2 8.55427L113.677 8.64932C113.391 8.69684 113.201 8.79189 113.201 8.93446C113.201 9.17209 113.677 10.5978 113.819 10.978L114.532 12.9741C114.675 13.3067 115.055 14.4473 115.151 14.4949C115.198 14.4473 115.578 13.782 115.959 12.879L116.672 11.1681C117.147 10.0275 117.433 9.26714 117.433 9.02951C117.433 8.88694 117.29 8.74437 116.91 8.64932L116.244 8.55427C116.101 8.45922 116.101 8.07902 116.292 8.03149C117.005 8.07902 117.623 8.07902 118.193 8.07902C118.716 8.07902 119.239 8.07902 119.81 8.03149C120 8.12654 120 8.45922 119.857 8.55427L119.477 8.60179C118.764 8.74437 118.383 9.36219 117.623 10.883L116.482 13.3067C115.769 14.7325 114.009 18.4869 112.964 20.8632C112.583 21.6711 112.06 21.8612 111.585 21.8612C110.919 21.8612 110.586 21.481 110.586 20.9582Z" fill="#182B45"/>
<path d="M44.2631 16.2057C44.2631 16.1582 44.2156 16.1582 44.2156 16.1107H44.168C43.7877 16.1107 43.7401 16.0632 43.6926 15.6354V15.5404V15.4929L43.645 11.1681V10.4077C43.645 8.93445 42.7892 7.74633 41.0777 7.74633C40.0793 7.74633 38.9858 8.22158 38.13 8.8394C37.9398 8.98197 37.7972 9.07702 37.607 9.0295C36.9889 8.12653 36.4184 7.74633 35.3249 7.74633C34.2789 7.74633 33.2805 8.2691 32.4723 8.8394C32.3297 8.8394 32.2346 8.74435 32.2346 8.60178C32.2346 8.41168 32.2346 8.079 32.2821 7.60376C32.2346 7.50871 32.1395 7.46118 32.0444 7.46118C31.6165 7.79385 30.3804 8.36415 29.9049 8.50673C29.8098 8.55425 29.8098 8.79187 29.9049 8.88692L30.0951 9.0295C30.6656 9.4097 30.6656 9.50475 30.6656 10.3602V15.5404C30.6656 16.1107 30.6656 16.1582 30.1902 16.1582H30.1427C30.0951 16.1582 30.0951 16.2057 30.0951 16.2533C30 16.4434 30.1427 16.6335 30.3328 16.6335H31.7591C32.0444 16.6335 32.2821 16.3958 32.2821 16.1107V15.6354V10.3127C32.3297 9.93247 32.4247 9.69484 32.5674 9.50475C32.9002 9.12455 33.5182 8.74435 34.374 8.74435C35.7053 8.74435 36.3709 9.50475 36.3709 10.978V14.1146C36.3709 15.683 36.3709 15.8731 35.5626 15.9681L35.3724 16.0156C35.2298 16.1107 35.2774 16.4909 35.42 16.5384C36.0381 16.4909 36.4184 16.4909 37.1791 16.4909C37.9398 16.4909 38.3677 16.4909 39.0333 16.5384C39.1759 16.4909 39.2235 16.1107 39.0808 16.0156L38.7956 15.9681C38.0349 15.8731 37.9873 15.6354 37.9873 14.1146V10.8354C37.9873 10.075 38.0349 9.88494 38.3201 9.55227C38.6054 9.17207 39.271 8.79187 40.1268 8.79187C41.5056 8.79187 42.1236 9.55227 42.1236 11.0255V11.2156L42.1712 15.683V16.1107C42.1712 16.3958 42.4089 16.6335 42.6942 16.6335H44.1205C44.2156 16.5859 44.3582 16.3483 44.2631 16.2057Z" fill="#182B45"/>
<path d="M16.5602 23.0505C22.6735 20.5192 25.5766 13.5133 23.0443 7.40238C20.512 1.29144 13.5033 -1.61045 7.38991 0.920844C1.27654 3.45213 -1.62649 10.4581 0.905801 16.569C3.43809 22.6799 10.4468 25.5818 16.5602 23.0505Z" fill="#182B45"/>
<path d="M5.56262 11.5011C5.51508 11.5486 5.41999 11.5486 5.37244 11.5011C5.08718 10.0278 5.51508 8.12681 6.8463 6.79612C8.17752 5.46543 10.0793 5.0377 11.5056 5.32285C11.5531 5.4179 11.5531 5.46543 11.5056 5.51295C10.0793 5.56048 8.7005 6.13077 7.41682 7.41394C6.13314 8.69711 5.61016 10.0753 5.56262 11.5011Z" fill="white"/>
<path d="M11.0777 14.2573C10.9826 14.2098 10.9826 14.0672 11.0777 13.9721L11.2679 13.9246C11.6482 13.8771 11.6482 13.782 11.6482 13.0216V11.5008C11.6482 10.788 11.3154 10.4078 10.6498 10.4078C10.2219 10.4078 9.93663 10.5979 9.74646 10.788C9.65137 10.883 9.60383 10.9781 9.60383 11.1682V13.782V14.0197C9.60383 14.1622 9.50874 14.2573 9.36611 14.2573H8.65296C8.55787 14.2573 8.46278 14.1622 8.51033 14.0672C8.51033 14.0672 8.51033 14.0197 8.55787 14.0197H8.60541C8.79559 14.0197 8.84313 14.0197 8.84313 13.7345V11.1682C8.84313 10.7405 8.84313 10.6929 8.55787 10.5028L8.46278 10.4553C8.41524 10.4078 8.41524 10.3127 8.46278 10.2652C8.7005 10.1702 9.31857 9.88501 9.50874 9.74243C9.55628 9.74243 9.60383 9.74243 9.60383 9.83748C9.60383 10.0751 9.60383 10.2177 9.60383 10.3603C9.60383 10.4078 9.65137 10.4553 9.69891 10.4553C10.0793 10.1702 10.6022 9.93253 11.1252 9.93253C11.6482 9.93253 11.9335 10.1226 12.2663 10.5504C12.3614 10.5504 12.4564 10.5504 12.5515 10.4553C12.9794 10.1702 13.5024 9.93253 13.9778 9.93253C14.8336 9.93253 15.2615 10.5028 15.2615 11.2632V11.6434V13.782V13.8296C15.2615 14.0672 15.3091 14.0672 15.4992 14.0672H15.5468C15.5468 14.0672 15.5943 14.0672 15.5943 14.1147C15.6419 14.2098 15.5468 14.3048 15.4517 14.3048H14.7385C14.5959 14.3048 14.5008 14.2098 14.5008 14.0672V13.782V11.5959V11.5008C14.5008 10.788 14.168 10.4078 13.5024 10.4078C13.1221 10.4078 12.7892 10.5979 12.5991 10.788C12.4564 10.9306 12.4564 11.0731 12.4564 11.4058V13.0216C12.4564 13.782 12.4564 13.8771 12.8368 13.9246L13.0745 13.9721C13.1696 14.0197 13.1221 14.2098 13.0745 14.2573C12.7417 14.2573 12.4564 14.2098 12.0761 14.2098C11.6482 14.2098 11.3629 14.2573 11.0777 14.2573Z" fill="white"/>
<path d="M17.2107 17.2039C15.8795 18.5346 13.9302 18.9148 12.5039 18.6296C12.4564 18.5346 12.4564 18.4871 12.5039 18.4395C13.9302 18.392 15.309 17.8217 16.5927 16.5385C17.8763 15.2554 18.4469 13.9247 18.4944 12.4514C18.542 12.4039 18.637 12.4039 18.6846 12.4514C18.9698 13.9247 18.542 15.8732 17.2107 17.2039Z" fill="white"/>
</g>
<defs>
<clipPath id="clip0_214_564">
<rect width="120" height="24" fill="white"/>
</clipPath>
</defs>
</svg>
